<?xml version="1.0" encoding="UTF-8" standalone="no"?>
<svg
   xmlns:sketch="http://www.bohemiancoding.com/sketch/ns"
   xmlns:dc="http://purl.org/dc/elements/1.1/"
   xmlns:cc="http://creativecommons.org/ns#"
   xmlns:rdf="http://www.w3.org/1999/02/22-rdf-syntax-ns#"
   xmlns:svg="http://www.w3.org/2000/svg"
   xmlns="http://www.w3.org/2000/svg"
   xmlns:sodipodi="http://sodipodi.sourceforge.net/DTD/sodipodi-0.dtd"
   xmlns:inkscape="http://www.inkscape.org/namespaces/inkscape"
   id="svg850"
   viewBox="0 0 200.25012 38.490261"
   version="1.1"
   sodipodi:docname="logo-dark.svg"
   inkscape:version="0.92.4 (5da689c313, 2019-01-14)"
   width="200.25012"
   height="38.490261">
  <metadata
     id="metadata856">
    <rdf:RDF>
      <cc:Work
         rdf:about="">
        <dc:format>image/svg+xml</dc:format>
        <dc:type
           rdf:resource="http://purl.org/dc/dcmitype/StillImage" />
        <dc:title></dc:title>
      </cc:Work>
    </rdf:RDF>
  </metadata>
  <defs
     id="defs854" />
  <sodipodi:namedview
     id="namedview852"
     pagecolor="#ffffff"
     bordercolor="#666666"
     borderopacity="1"
     objecttolerance="10"
     gridtolerance="10"
     guidetolerance="10"
     inkscape:pageopacity="0"
     inkscape:pageshadow="2"
     inkscape:window-width="1366"
     inkscape:window-height="705"
     showgrid="false"
     inkscape:zoom="2.87"
     inkscape:cx="151.8688"
     inkscape:cy="-46.555605"
     inkscape:window-x="-8"
     inkscape:window-y="-8"
     inkscape:window-maximized="1"
     inkscape:current-layer="svg850"
     fit-margin-top="0"
     fit-margin-left="5"
     fit-margin-right="5"
     fit-margin-bottom="0" />
  <g
     transform="matrix(0.12391312,0,0,0.12391312,150.14054,1.7279874)"
     style="fill:none;fill-rule:nonzero"
     id="g2061">
    <path
       style="fill:#00c58e"
       inkscape:connector-curvature="0"
       id="path2055"
       d="m 227.92099,82.07407 -13.6889,23.7037 L 167.41729,24.69136 23.7037,273.58025 h 97.3037 c 0,13.0912 10.61252,23.7037 23.70371,23.7037 H 23.70371 c -8.46771,0 -16.29145,-4.52017 -20.5246,-11.85382 -4.23315,-7.33366 -4.23272,-16.36849 0.00114,-23.70174 L 146.89383,12.83951 c 4.23415,-7.33433 12.0596,-11.85252 20.5284,-11.85252 8.46878,0 16.29423,4.51819 20.52839,11.85252 z" />
    <path
       style="fill:#ffffff"
       inkscape:connector-curvature="0"
       id="path2057"
       d="m 331.6642,261.7284 -90.05432,-155.95062 -13.6889,-23.7037 -13.68888,23.7037 -90.04445,155.95061 c -4.23385,7.33325 -4.23428,16.36808 -0.001,23.70174 4.23314,7.33365 12.05689,11.85382 20.5246,11.85382 h 166.4 c 8.46946,0 16.29644,-4.51525 20.532,-11.84955 4.23555,-7.3343 4.23606,-16.37123 10e-4,-23.706 z m -186.9531,11.85184 83.2099,-144.09876 83.19012,144.09877 h -166.4 z" />
    <path
       style="fill:#108775"
       inkscape:connector-curvature="0"
       id="path2059"
       d="m 396.04938,285.4321 c -4.23344,7.33254 -12.05656,11.85185 -20.52345,11.85185 H 311.1111 c 13.0912,0 23.7037,-10.6125 23.7037,-23.7037 h 40.66173 L 260.09877,73.74815 241.60987,105.77778 227.92099,82.07408 239.5753,61.8963 c 4.23416,-7.33433 12.0596,-11.85252 20.5284,-11.85252 8.46879,0 16.29423,4.51819 20.52839,11.85252 l 115.41728,199.8321 c 4.23426,7.33395 4.23426,16.36975 0,23.7037 z" />
  </g>
  <text
     xml:space="preserve"
     style="font-style:normal;font-variant:normal;font-weight:bold;font-stretch:normal;font-size:21.14914322px;line-height:1.25;font-family:'Noto Sans';-inkscape-font-specification:'Noto Sans, Bold';font-variant-ligatures:normal;font-variant-caps:normal;font-variant-numeric:normal;font-feature-settings:normal;text-align:start;letter-spacing:0px;word-spacing:0px;writing-mode:lr-tb;text-anchor:start;fill:#000000;fill-opacity:1;stroke:none;stroke-width:0.66091555"
     x="15.6693"
     y="22.530977"
     id="text4550"><tspan
       sodipodi:role="line"
       id="tspan4548"
       x="15.6693"
       y="22.530977"
       style="font-style:normal;font-variant:normal;font-weight:bold;font-stretch:normal;font-size:21.14914322px;font-family:'Noto Sans';-inkscape-font-specification:'Noto Sans, Bold';font-variant-ligatures:normal;font-variant-caps:normal;font-variant-numeric:normal;font-feature-settings:normal;text-align:start;writing-mode:lr-tb;text-anchor:start;stroke-width:0.66091555;fill:#ffffff;fill-opacity:1">nuxt-socket-io</tspan></text>
  <g
     id="Page-1"
     style="fill:none;fill-rule:evenodd;stroke:none;stroke-width:1"
     sketch:type="MSPage"
     transform="matrix(0.33473715,0,0,0.33473715,170.92128,22.334312)">
    <g
       id="logo"
       sketch:type="MSLayerGroup">
      <path
         id="path1428"
         style="fill:#010101"
         inkscape:connector-curvature="0"
         d="m 16.2,1.24 c 5.42,-1.39 11.41,-0.58 16.19,2.37 6.02,3.6 9.95,10.41 10.05,17.42 0.22,7.08 -3.47,14.1 -9.4,17.95 -6.6,4.44 -15.73,4.61 -22.47,0.39 C 3.7,35.27 -0.31,27 0.72,19.06 1.55,10.67 8.03,3.27 16.2,1.24 Z"
         sketch:type="MSShapeGroup" />
      <path
         id="path1430"
         style="fill:#ffffff"
         inkscape:connector-curvature="0"
         d="M 15.37,4.67 C 25.61,0.57 38.17,8.14 39.23,19.12 40.88,29 32.68,39.04 22.67,39.33 13.15,40.28 3.95,32.21 3.68,22.65 2.97,14.91 8.07,7.23 15.37,4.67 Z"
         sketch:type="MSShapeGroup" />
      <path
         id="path1432"
         style="fill:#010101"
         inkscape:connector-curvature="0"
         d="m 16.4,20.44 c 4.59,-3.75 9.08,-7.63 13.77,-11.27 -2.46,3.78 -4.99,7.51 -7.45,11.29 -2.11,0.01 -4.22,0.01 -6.32,-0.02 z"
         sketch:type="MSShapeGroup" />
      <path
         id="path1434"
         style="fill:#010101"
         inkscape:connector-curvature="0"
         d="m 20.28,22.53 c 2.12,0 4.23,0 6.34,0.03 -4.62,3.73 -9.09,7.64 -13.79,11.27 2.46,-3.78 4.99,-7.52 7.45,-11.3 z"
         sketch:type="MSShapeGroup" />
    </g>
  </g>
</svg>
